<svg xmlns="http://www.w3.org/2000/svg" width="240.326" height="32" viewBox="0 0 240.326 32">
  <g id="Group_1" data-name="Group 1" transform="translate(-123.938 -206.021)">
    <path id="Path_1" data-name="Path 1" d="M134.162,212.146a15.491,15.491,0,0,0-5.513-.707h-4.711v23.336h4.442v-9.883a19.89,19.89,0,0,0,4.678-.365,6.614,6.614,0,0,0,3.466-2.253,6.356,6.356,0,0,0,1.278-4.062,7.057,7.057,0,0,0-.976-3.782,5.6,5.6,0,0,0-2.664-2.283m-1.031,7.388a2.065,2.065,0,0,1-1.024.787,7.556,7.556,0,0,1-2.316.239h-1.41v-4.791h1.251a5.962,5.962,0,0,1,2.825.464,2.127,2.127,0,0,1,1.046,1.972,2.308,2.308,0,0,1-.372,1.329" transform="translate(0 -1.703)" fill="#9c9b9b"/>
    <path id="Path_2" data-name="Path 2" d="M165.619,234.775h4.616l-8.977-23.336h-4.5l-9,23.336h4.614l1.9-4.808h9.519Zm-9.716-9.139,3.131-8.009,3.112,8.009Z" transform="translate(-7.486 -1.703)" fill="#9c9b9b"/>
    <path id="Path_3" data-name="Path 3" d="M190.427,224.892h.406l5.248,9.883h4.858L195.409,224.4a6.693,6.693,0,0,0,3.323-2.34,6.464,6.464,0,0,0,1.1-3.849,7.027,7.027,0,0,0-1-3.789,5.653,5.653,0,0,0-2.64-2.294,15.573,15.573,0,0,0-5.508-.69h-4.7v23.336h4.443Zm0-9.122h1.218a8.067,8.067,0,0,1,2.435.248,2.186,2.186,0,0,1,1.061.813,2.254,2.254,0,0,1,.4,1.328,2.1,2.1,0,0,1-.8,1.846,5.436,5.436,0,0,1-2.92.558h-1.391Z" transform="translate(-19.5 -1.703)" fill="#9c9b9b"/>
    <path id="Path_4" data-name="Path 4" d="M229.233,211.439H223.9l-6.334,8.047v-8.047h-4.491v23.336h4.491V224.406l7.192,10.369h5.27l-8.943-12.922Z" transform="translate(-28.013 -1.702)" fill="#9c9b9b"/>
    <path id="Path_5" data-name="Path 5" d="M253.5,235.093a12.3,12.3,0,0,0,8.681-20.972,12.11,12.11,0,0,0-8.873-3.536,12.03,12.03,0,0,0-10.518,6.121,12.454,12.454,0,0,0-1.626,6.235,11.686,11.686,0,0,0,3.573,8.6,11.939,11.939,0,0,0,8.762,3.552m-8.622-17.256A9.738,9.738,0,0,1,248.5,214.2a9.626,9.626,0,0,1,4.909-1.35,9.885,9.885,0,0,1,4.989,1.35,9.649,9.649,0,0,1,3.647,3.6,9.884,9.884,0,0,1,1.3,5.026,10.124,10.124,0,0,1-1.3,5.08,9.409,9.409,0,0,1-3.607,3.6,9.992,9.992,0,0,1-5.028,1.318,9.822,9.822,0,0,1-9.837-9.892,10.134,10.134,0,0,1,1.3-5.1" transform="translate(-36.84 -1.434)" fill="#9c9b9b"/>
    <path id="Path_6" data-name="Path 6" d="M286.279,217.105l15.4,17.669h.525V211.439h-2.3v17.89l-15.531-17.89h-.507v23.336h2.411Z" transform="translate(-50.262 -1.702)" fill="#9c9b9b"/>
    <rect id="Rectangle_1" data-name="Rectangle 1" width="2.334" height="23.336" transform="translate(257.29 209.736)" fill="#9c9b9b"/>
    <path id="Path_7" data-name="Path 7" d="M340.8,232.89a10.153,10.153,0,0,1-7.389-2.856,9.565,9.565,0,0,1-2.921-7.123,9.962,9.962,0,0,1,1.31-5.085,9.633,9.633,0,0,1,3.686-3.6,10.351,10.351,0,0,1,5.171-1.341,10.707,10.707,0,0,1,4.69,1.022A10.1,10.1,0,0,1,349,216.914l1.84-1.411a11.442,11.442,0,0,0-4.314-3.628,13.234,13.234,0,0,0-5.9-1.291,12.4,12.4,0,0,0-9,3.5,11.554,11.554,0,0,0-3.592,8.624A12.3,12.3,0,0,0,331,231.016a12.123,12.123,0,0,0,9.66,4.077,13.7,13.7,0,0,0,5.831-1.212,11.782,11.782,0,0,0,4.354-3.435l-1.84-1.4a10.382,10.382,0,0,1-8.2,3.841" transform="translate(-64.142 -1.434)" fill="#9c9b9b"/>
    <path id="Path_8" data-name="Path 8" d="M409.885,233.339l.3.3-.014.014.014.013-2.316,1.429-.088-.032H373.865v-.592h33.507l-.494-.769h-14.65v-.591H406.5l-.49-.769H385.4v-.591h20.227l-.494-.769h-12.9v-.59h12.527l-.5-.769h-5.03l-.184.3-.355-.3H373.865v-.592h24.111l-.935-.769h-4.814v-.591h4.108l-.934-.774h-10v-.584h9.294l-.933-.774-.663-.565-.309.565-.165.286-.545-.3.151-.245.2-.332.465-.769H373.865v-.589H393.25l.2-.329h.839l.4.329h5.8l.479-.769h-8.737v-.592h9.105l.477-.769H385.4v-.591h16.782l.476-.769H392.228v-.592h10.8l.479-.767H373.865v-.592h30.006l.479-.769H392.228v-.591h12.49l.1-.154-.306-.619H385.4v-.591h18.818l-.375-.768h-.516l-.479.408-.343-.406,0,0H392.228v-.591H403.2l.673-.573.281.573H406.4l.48-.768H373.865V212.7H407.25l.02-.027,1.641.895-.295.493h.017l-.356.591h-.016l-.464.768h.014l-.354.591h-.016l-.464.773h.015l-.361.591h-.013l-.459.763v.006h.011l-.005.009,1.171,2.375,1.225-.8.249.374-1.725,1.136-1.249-2.539-.023.038H405.8l-.465.767h.018l-.359.592h-.014l-.464.769h.013l-.352.591h-.021l-.465.769h.019l-.359.592h-.01l-.47.769h.018l-.106.173.281.416h-.016l.512.769h.02l.4.592h-.023l.521.774h.017l.4.584h-.02l.521.774h.016l.4.591h-.017l.518.769h.02l.393.592H406.7l.518.769h.02l.395.59h-.018l.514.769h.023l.395.591h-.018l.516.769h.019l.347.52Zm-4.331-17.915.481-.768h-1.6l.376.768Zm-.41.67.047-.079h-.083Zm-1.265,12.939-.494-.769h-3.339l-.465.769Zm-.872-1.36-.489-.774h-1.65l-.462.774Zm-.873-1.358-.469-.733-.439.733Zm-2.494-1.366.478-.769H395.4l.927.769Zm-.845,1.366.477-.774H397.04l.928.774Z" transform="translate(-78.546 -2.092)" fill="#ffb438"/>
    <text id="TM" transform="translate(330.264 206.021)" fill="#524e4d" font-size="6" font-family="Helvetica"><tspan x="0" y="5">TM</tspan></text>
  </g>
</svg>
