<svg xmlns="http://www.w3.org/2000/svg" width="330.028" height="44" viewBox="0 0 330.028 44">
  <g id="Group_27" data-name="Group 27" transform="translate(-651 -5168)">
    <path id="Path_72" data-name="Path 72" d="M427.84,614.376q-2.324-.972-7.589-.974h-6.485v32.124h6.115v-13.6a27.411,27.411,0,0,0,6.439-.5,9.111,9.111,0,0,0,4.772-3.1,8.751,8.751,0,0,0,1.759-5.592,9.714,9.714,0,0,0-1.344-5.208,7.708,7.708,0,0,0-3.667-3.143m-1.42,10.17a2.837,2.837,0,0,1-1.411,1.083,10.366,10.366,0,0,1-3.188.33h-1.94v-6.6H421.6a8.213,8.213,0,0,1,3.889.638,2.928,2.928,0,0,1,1.44,2.715,3.18,3.18,0,0,1-.512,1.829" transform="translate(237.234 4559.124)" fill="#fff"/>
    <path id="Path_73" data-name="Path 73" d="M476.457,645.526h6.355L470.455,613.4h-6.2l-12.387,32.124h6.352l2.617-6.617h13.1Zm-13.374-12.58,4.309-11.025,4.285,11.025Z" transform="translate(221.616 4559.124)" fill="#fff"/>
    <path id="Path_74" data-name="Path 74" d="M519.137,631.922h.559l7.224,13.6h6.687L526,631.246a9.219,9.219,0,0,0,4.574-3.222,8.9,8.9,0,0,0,1.514-5.3,9.667,9.667,0,0,0-1.371-5.216,7.776,7.776,0,0,0-3.634-3.158q-2.255-.949-7.581-.951h-6.476v32.124h6.116Zm0-12.558h1.676a11.094,11.094,0,0,1,3.352.341,3.014,3.014,0,0,1,1.461,1.119,3.107,3.107,0,0,1,.545,1.828,2.886,2.886,0,0,1-1.1,2.54,7.482,7.482,0,0,1-4.02.769h-1.915Z" transform="translate(196.549 4559.124)" fill="#fff"/>
    <path id="Path_75" data-name="Path 75" d="M578.6,613.4h-7.343l-8.72,11.077V613.4h-6.183v32.124h6.183V631.253l9.9,14.274h7.255l-12.311-17.788Z" transform="translate(178.786 4559.124)" fill="#fff"/>
    <path id="Path_76" data-name="Path 76" d="M618.267,645.776a16.936,16.936,0,0,0,11.949-28.87A16.668,16.668,0,0,0,618,612.037a16.56,16.56,0,0,0-14.478,8.427,17.142,17.142,0,0,0-2.238,8.584,16.088,16.088,0,0,0,4.918,11.837,16.436,16.436,0,0,0,12.063,4.891M606.4,622.02a13.4,13.4,0,0,1,4.989-5,13.249,13.249,0,0,1,6.758-1.858,13.6,13.6,0,0,1,6.867,1.858,13.281,13.281,0,0,1,5.021,4.951,13.607,13.607,0,0,1,1.786,6.917,13.941,13.941,0,0,1-1.786,6.993,12.964,12.964,0,0,1-4.965,4.962,13.756,13.756,0,0,1-6.923,1.814A13.519,13.519,0,0,1,604.6,629.036a13.945,13.945,0,0,1,1.794-7.016" transform="translate(160.368 4559.684)" fill="#fff"/>
    <path id="Path_77" data-name="Path 77" d="M672.923,621.2l21.2,24.324h.723V613.4h-3.167V638.03L670.3,613.4h-.7v32.124h3.319Z" transform="translate(132.364 4559.124)" fill="#fff"/>
    <rect id="Rectangle_26" data-name="Rectangle 26" width="3.213" height="32.124" transform="translate(834.571 5172.526)" fill="#fff"/>
    <path id="Path_78" data-name="Path 78" d="M757.829,642.741a13.982,13.982,0,0,1-10.171-3.931A13.17,13.17,0,0,1,743.637,629a13.711,13.711,0,0,1,1.8-7,13.26,13.26,0,0,1,5.074-4.956,14.248,14.248,0,0,1,7.118-1.846,14.74,14.74,0,0,1,6.457,1.408,13.907,13.907,0,0,1,5.031,4.139l2.533-1.941a15.75,15.75,0,0,0-5.938-4.995,18.221,18.221,0,0,0-8.126-1.776A17.063,17.063,0,0,0,745.2,616.85a15.907,15.907,0,0,0-4.944,11.871,16.932,16.932,0,0,0,4.082,11.441q4.87,5.614,13.3,5.612a18.848,18.848,0,0,0,8.028-1.669,16.206,16.206,0,0,0,5.994-4.729l-2.533-1.922a14.292,14.292,0,0,1-11.291,5.287" transform="translate(103.405 4559.684)" fill="#fff"/>
    <path id="Path_79" data-name="Path 79" d="M863.158,643.827l.408.415-.021.018.021.019-3.188,1.967-.122-.043H813.572v-.815H859.7l-.68-1.059H838.85v-.813H858.5l-.675-1.059H829.45v-.814h27.843l-.68-1.058H838.85v-.813h17.244l-.685-1.059h-6.925l-.253.407-.489-.407H813.572V637.9h33.192l-1.287-1.059H838.85v-.814h5.655l-1.285-1.066H829.45v-.8h12.793l-1.285-1.066-.912-.777-.426.777-.227.395-.751-.414.208-.338.275-.456.64-1.059H813.572v-.811h26.685l.277-.453h1.156l.546.453h7.983l.659-1.059H838.85v-.814h12.534l.656-1.059H829.45v-.814h23.1l.654-1.059H838.85v-.815h14.862l.66-1.056h-40.8v-.814h41.305l.66-1.059H838.85v-.814h17.194l.131-.212-.422-.853h-26.3v-.814h25.9l-.516-1.057h-.71l-.66.562L853,618.11l0,0H838.85v-.813h15.1l.927-.789.388.789h3.1l.66-1.057H813.572v-.817h45.957l.028-.037,2.259,1.233-.406.678h.024l-.49.813h-.022l-.64,1.057h.02l-.488.814h-.022l-.638,1.065h.02l-.5.814h-.018l-.633,1.051v.008h.015l-.007.012,1.611,3.269,1.687-1.1.343.514-2.375,1.564-1.718-3.495-.031.052h-.024l-.64,1.056h.026l-.494.815H856.4l-.64,1.059h.018l-.484.814h-.029l-.64,1.059h.025l-.494.814h-.015l-.647,1.059h.026l-.146.238.387.574h-.022l.7,1.059h.028l.548.814h-.031l.717,1.066h.024l.546.8h-.028l.717,1.066h.022l.546.814h-.024l.713,1.059h.028l.541.814h-.024l.714,1.059h.028l.544.813h-.026l.708,1.058h.031l.544.814h-.025l.71,1.059h.025l.478.716ZM857.2,619.164l.662-1.057h-2.2l.518,1.057Zm-.564.923.064-.109h-.114ZM854.889,637.9l-.68-1.059h-4.6l-.64,1.059Zm-1.2-1.872-.673-1.066h-2.271l-.636,1.066Zm-1.2-1.871-.645-1.009-.6,1.009Zm-3.433-1.879.658-1.059H843.22l1.276,1.059Zm-1.164,1.879.656-1.066h-3.071l1.278,1.066Z" transform="translate(73.351 4558.312)" fill="#ffbf3c"/>
    <text id="TM" transform="translate(935.028 5168)" fill="#f7f8f9" font-size="9.598" font-family="Helvetica"><tspan x="0" y="7">TM</tspan></text>
  </g>
</svg>
